<svg xmlns="http://www.w3.org/2000/svg" width="78.529" height="78.532" viewBox="0 0 78.529 78.532"><defs><style>.a{fill:#34d159;}</style></defs><path class="a" d="M69.72,73.052l-.4.218a5.558,5.558,0,0,0-6.6-1.654l-.023.012-.952.513a7.232,7.232,0,0,0-8.282-.748l-5.128,2.789H41.506a9.856,9.856,0,0,1-4.267-.978L36.3,72.75a16.1,16.1,0,0,0-16.759,1.637c-.022.017-.044.034-.065.053L17.21,76.457a7.861,7.861,0,0,1-2.966,1.653l-1.287-4.225a1.02,1.02,0,0,0-.976-.723H1.02A1.02,1.02,0,0,0,.007,74.307l3.653,29.956a1.02,1.02,0,0,0,1.013.9h16.44a1.02,1.02,0,0,0,.976-1.318l-2.16-7.087L26.656,92.5a4.047,4.047,0,0,1,2.953-.382l.064.014,13.682,2.519A17.7,17.7,0,0,0,54.3,93.11a.977.977,0,0,0,.125-.073L78.086,76.788a1.02,1.02,0,0,0,.3-1.367,6.5,6.5,0,0,0-8.662-2.369Zm-6.074.379a3.484,3.484,0,0,1,3.81.842l-8.974,4.841-.527.278a7.781,7.781,0,0,0-1.229-2.233Zm-9.2-.253.024-.014a5.189,5.189,0,0,1,5.278.05l-4.563,2.457A7.753,7.753,0,0,0,52.27,74.36ZM5.576,103.119,2.173,75.2h9.052l8.511,27.916ZM53.325,91.312a15.65,15.65,0,0,1-9.6,1.335L30.072,90.134a6.083,6.083,0,0,0-4.436.6l-.047.028-6.278,3.969L14.839,80.064a9.908,9.908,0,0,0,3.727-2.084L20.8,75.99a14.07,14.07,0,0,1,14.611-1.406l.939.454A11.911,11.911,0,0,0,41.5,76.22h9.1a5.756,5.756,0,0,1,5.646,4.675l-6.6-.3a39.5,39.5,0,0,0-7.18.332,1.02,1.02,0,0,0,.28,2.021,37.412,37.412,0,0,1,6.807-.314l7.764.351h.046a1.02,1.02,0,0,0,1.02-1.02c0-.165-.007-.329-.017-.491l1.065-.561L70.69,74.847a4.458,4.458,0,0,1,5.364.86Z" transform="translate(0 -26.628)"/><path class="a" d="M14.182,114.254a3.215,3.215,0,1,0,.942-2.271A3.214,3.214,0,0,0,14.182,114.254Zm3.212-1.172a1.174,1.174,0,1,1-.828.344,1.167,1.167,0,0,1,.828-.344Z" transform="translate(-5.362 -41.984)"/><path class="a" d="M66.192,11.071V7.709a7.745,7.745,0,0,0-15.49,0v3.362a7.745,7.745,0,0,0,15.49,0Zm-13.449,0V7.709a5.7,5.7,0,0,1,11.408,0v3.362a5.7,5.7,0,0,1-11.408,0Z" transform="translate(-19.17)"/><path class="a" d="M31.435,51.562H56.4a1.02,1.02,0,0,0,1.02-1.02V48.2H74.515a1.02,1.02,0,0,0,1.02-1.02V40.557a7.647,7.647,0,0,0-7.161-7.628,1.19,1.19,0,0,0-1.05.581,4.683,4.683,0,0,1-7.388-.18,1.02,1.02,0,0,0-.846-.414,7.564,7.564,0,0,0-3.753,1.095,8.577,8.577,0,0,0-5.986-2.969,1.241,1.241,0,0,0-1.052.612,5.494,5.494,0,0,1-8.669-.212,1.017,1.017,0,0,0-.846-.414,8.539,8.539,0,0,0-5.926,2.585c-.129.132-.251.268-.37.407a7.586,7.586,0,0,0-3.479-1.092,1.193,1.193,0,0,0-1.051.581,4.682,4.682,0,0,1-7.387-.18,1.023,1.023,0,0,0-.846-.414,7.645,7.645,0,0,0-7.45,7.641v6.623A1.02,1.02,0,0,0,13.3,48.2H30.415v2.342a1.02,1.02,0,0,0,1.02,1.02Zm27.22-16.573a6.724,6.724,0,0,0,10.067.026,5.611,5.611,0,0,1,4.773,5.542v5.6H57.423V39.613a8.537,8.537,0,0,0-.943-3.907A5.516,5.516,0,0,1,58.655,34.989ZM38.345,33.1a7.536,7.536,0,0,0,11.382.027,6.554,6.554,0,0,1,5.656,6.486v9.908H32.455V39.613A6.592,6.592,0,0,1,38.345,33.1ZM14.316,46.159v-5.6a5.642,5.642,0,0,1,4.975-5.567,6.723,6.723,0,0,0,10.066.026,5.567,5.567,0,0,1,1.991.7,8.549,8.549,0,0,0-.933,3.9v6.546Z" transform="translate(-4.641 -11.732)"/><path class="a" d="M97.491,16.7V13.758a6.906,6.906,0,0,0-13.812,0V16.7a6.906,6.906,0,0,0,13.812,0Zm-11.772,0V13.758a4.866,4.866,0,0,1,9.731,0V16.7a4.866,4.866,0,1,1-9.731,0Z" transform="translate(-31.638 -2.591)"/><path class="a" d="M34.194,16.7V13.758a6.906,6.906,0,0,0-13.812,0V16.7a6.906,6.906,0,1,0,13.812,0Zm-11.772,0V13.758a4.866,4.866,0,0,1,9.731,0V16.7a4.866,4.866,0,1,1-9.731,0Z" transform="translate(-7.706 -2.591)"/></svg>