<svg xmlns="http://www.w3.org/2000/svg" width="83.786" height="95.759" viewBox="0 0 83.786 95.759"><defs><style>.a{fill:#34d159;}.b{fill:#eef5ff;}.c{fill:#416aa8;}</style></defs><g transform="translate(-713.743 -1268.711)"><path class="a" d="M1072.685,1732.6c.014-.014.036-.021.05-.036l3.123-3.13a4.71,4.71,0,0,0-6.66-6.66l-3.009,3a41.629,41.629,0,0,0-23.926-9.683v-6.1h5.981a2.994,2.994,0,1,0,0-5.989h-17.951a2.994,2.994,0,0,0,0,5.989h5.981v6.1a41.669,41.669,0,0,0-23.633,9.433l-2.751-2.751a4.712,4.712,0,0,0-6.667,6.66l2.866,2.866a41.888,41.888,0,1,0,66.6.3Zm-33.416,61.171a35.91,35.91,0,1,1,35.91-35.9A35.906,35.906,0,0,1,1039.27,1793.771Z" transform="translate(-283.632 -435.289)"/><path class="b" d="M1068.019,1768.953a1.5,1.5,0,0,1,0-2.994h5.91a29.87,29.87,0,0,0-28.356-28.349v5.9a1.494,1.494,0,1,1-2.987,0v-5.9a29.87,29.87,0,0,0-28.356,28.349h5.91a1.5,1.5,0,0,1,0,2.994h-5.91a29.871,29.871,0,0,0,28.356,28.349v-5.91a1.494,1.494,0,1,1,2.987,0v5.91a29.871,29.871,0,0,0,28.356-28.349Z" transform="translate(-288.442 -444.881)"/><path class="c" d="M1074.281,1750.939a2.993,2.993,0,0,0-4.238,0l-15.6,15.607c-.079-.007-.157-.029-.236-.029a4.491,4.491,0,1,0,4.488,4.488c0-.079-.021-.15-.021-.229l15.607-15.607A3,3,0,0,0,1074.281,1750.939Z" transform="translate(-298.57 -448.434)"/></g></svg>