<svg xmlns="http://www.w3.org/2000/svg" width="86.469" height="86.469" viewBox="0 0 86.469 86.469"><defs><style>.a{fill:#34d159;}</style></defs><path class="a" d="M1395.493,1316.709l20.267,20.267a1.7,1.7,0,0,0,2.394,0l11.141-11.148a1.678,1.678,0,0,0,0-2.387l-.493-.493h24.347a8.444,8.444,0,0,0,5.753-2.265l20.488-19.2a6.518,6.518,0,0,0-7.889-10.3c-.014.007-4.552,2.98-4.552,2.98-.029-9.154-5.56-18.916-13.178-23.311a5.072,5.072,0,0,0-2.244-8.147c-.079-.029-.164-.057-.243-.079l4.345-7.811a1.7,1.7,0,0,0,.086-1.465,1.68,1.68,0,0,0-1.093-.979,34.649,34.649,0,0,0-19.259,0,1.68,1.68,0,0,0-1,2.444l4.345,7.811c-.086.029-.172.05-.25.079a5.076,5.076,0,0,0-3.23,6.4,5,5,0,0,0,1,1.751c-7.732,4.459-13.192,14.321-13.192,23.389,0,.25.007.493.014.736a20.792,20.792,0,0,0-8.2,4.4l-5.131,4.495-.686-.686a1.691,1.691,0,0,0-2.387,0l-11.148,11.148A1.691,1.691,0,0,0,1395.493,1316.709Zm42.884-61.622a31.3,31.3,0,0,1,13.235,0l-3.766,6.753a20.6,20.6,0,0,0-5.7,0Zm1.129,10.819a17.446,17.446,0,0,1,10.969,0,1.7,1.7,0,0,1,1.079,2.13,1.668,1.668,0,0,1-1.5,1.158,16.533,16.533,0,0,0-10.119,0h0a1.688,1.688,0,0,1-.429-3.287Zm.936,6.682a13.165,13.165,0,0,1,8.9-.072c7.846,2.694,14.235,12.442,14.235,21.717a15.871,15.871,0,0,1-.15,2.237l-8.118,5.324a6.709,6.709,0,0,0-5.245-2.494h-3.38v-1.979a5.064,5.064,0,0,0-1.687-9.84,1.69,1.69,0,1,1,0-3.38,2.691,2.691,0,0,1,1.822.886,1.691,1.691,0,1,0,2.351-2.43,6.562,6.562,0,0,0-2.487-1.558v-1.965a1.69,1.69,0,0,0-3.38,0v1.979a5.066,5.066,0,0,0,1.694,9.84,1.69,1.69,0,0,1,0,3.38,3.068,3.068,0,0,1-2.194-1.279,1.689,1.689,0,1,0-2.587,2.172,6.974,6.974,0,0,0,3.087,2.2v1.972h-.557c-.829,0-1.208-.543-1.786-.922a20.907,20.907,0,0,0-12.449-4.145,20.559,20.559,0,0,0-2.094.107v-.107C1426.415,1285.087,1432.71,1275.376,1440.443,1272.589Zm-23.368,29.321a17.38,17.38,0,0,1,21.853-.829,5.95,5.95,0,0,0,3.816,1.6h7.318a3.377,3.377,0,1,1,0,6.753h-11.827a1.69,1.69,0,0,0,0,3.38h11.827a6.746,6.746,0,0,0,6.653-7.9l16.586-10.884a3.145,3.145,0,0,1,4.574,1.508,3.123,3.123,0,0,1-.786,3.473l-20.488,19.2a5.037,5.037,0,0,1-3.452,1.358h-27.72l-13.321-13.313Zm-9.24,4.845,17.88,17.88-8.761,8.754-17.873-17.873Z" transform="translate(-1395 -1251)"/></svg>